<?xml version="1.0" standalone="no"?>
<svg version="1.1" preserveAspectRatio="xMidYMid meet" viewBox="0 0 64 64" class="ng-element" data-id="1a0de36c65bd4175854c850d34535ce1" style="mix-blend-mode: normal; overflow: visible; width: 40px; height: 40px; filter: none;" xmlns="http://www.w3.org/2000/svg"><path d="M44.753,29.5c-0.029-0.147-0.066-0.29-0.1-0.435c-0.049-0.211-0.102-0.421-0.162-0.63c-0.05-0.176-0.102-0.351-0.16-0.524  c-0.062-0.185-0.132-0.368-0.202-0.551c-0.107-0.278-0.222-0.55-0.347-0.819c-0.068-0.147-0.137-0.293-0.211-0.437  c-0.089-0.175-0.181-0.348-0.278-0.518c-0.016-0.029-0.03-0.059-0.047-0.088c-0.008-0.014-0.021-0.025-0.03-0.039  C40.959,21.603,36.783,19,32,19s-8.959,2.603-11.217,6.46c-0.009,0.014-0.022,0.024-0.03,0.039  c-0.017,0.029-0.031,0.059-0.047,0.088c-0.097,0.17-0.188,0.343-0.278,0.518c-0.074,0.144-0.143,0.29-0.211,0.437  c-0.125,0.268-0.24,0.541-0.347,0.819c-0.07,0.183-0.14,0.365-0.202,0.551c-0.057,0.173-0.109,0.348-0.16,0.524  c-0.06,0.209-0.113,0.419-0.162,0.63c-0.034,0.145-0.071,0.288-0.1,0.435c-0.066,0.335-0.115,0.672-0.155,1.011  c-0.013,0.112-0.024,0.224-0.034,0.337C19.024,31.231,19,31.615,19,32s0.024,0.769,0.058,1.152c0.01,0.113,0.021,0.225,0.034,0.337  c0.04,0.339,0.089,0.676,0.155,1.011c0.029,0.147,0.066,0.29,0.1,0.435c0.049,0.211,0.102,0.421,0.162,0.63  c0.05,0.176,0.102,0.351,0.16,0.524c0.062,0.185,0.131,0.367,0.202,0.55c0.107,0.278,0.222,0.551,0.348,0.82  c0.068,0.146,0.137,0.292,0.211,0.437c0.089,0.175,0.181,0.348,0.278,0.518c0.016,0.029,0.03,0.059,0.047,0.088  c0.008,0.014,0.021,0.025,0.03,0.039C23.041,42.397,27.217,45,32,45s8.959-2.603,11.217-6.46c0.009-0.014,0.022-0.024,0.03-0.039  c0.017-0.029,0.031-0.059,0.047-0.088c0.097-0.17,0.188-0.343,0.278-0.518c0.074-0.144,0.143-0.29,0.211-0.437  c0.125-0.269,0.241-0.542,0.348-0.82c0.07-0.182,0.14-0.365,0.202-0.55c0.057-0.173,0.109-0.348,0.16-0.524  c0.06-0.209,0.113-0.419,0.162-0.63c0.034-0.145,0.071-0.288,0.1-0.435c0.066-0.335,0.115-0.672,0.155-1.011  c0.013-0.112,0.024-0.224,0.034-0.337C44.976,32.769,45,32.385,45,32s-0.024-0.769-0.058-1.152c-0.01-0.113-0.021-0.225-0.034-0.337  C44.868,30.172,44.82,29.835,44.753,29.5z M42.853,33.714c-0.019,0.122-0.033,0.245-0.056,0.365  c-0.053,0.274-0.122,0.546-0.196,0.815c-0.017,0.063-0.031,0.128-0.049,0.19c-0.086,0.292-0.187,0.58-0.297,0.865  c-0.015,0.039-0.028,0.08-0.044,0.119c-0.115,0.288-0.245,0.57-0.385,0.849c-0.014,0.028-0.026,0.056-0.04,0.084h-3.777  c0.481-1.24,0.823-2.585,0.938-4h4.002c-0.001,0.016-0.001,0.031-0.002,0.047C42.925,33.271,42.888,33.492,42.853,33.714z   M22.174,36.916c-0.14-0.278-0.27-0.561-0.385-0.849c-0.016-0.039-0.028-0.079-0.044-0.119c-0.11-0.285-0.211-0.573-0.297-0.865  c-0.018-0.063-0.032-0.127-0.049-0.19c-0.074-0.27-0.142-0.541-0.196-0.815c-0.023-0.12-0.037-0.243-0.056-0.365  c-0.035-0.222-0.073-0.443-0.094-0.667c-0.001-0.016-0.001-0.031-0.002-0.047h4.002c0.116,1.415,0.458,2.76,0.938,4h-3.777  C22.2,36.973,22.188,36.944,22.174,36.916z M21.147,30.286c0.019-0.122,0.033-0.245,0.056-0.365  c0.053-0.274,0.122-0.546,0.196-0.815c0.017-0.063,0.031-0.128,0.049-0.19c0.086-0.292,0.187-0.58,0.297-0.865  c0.015-0.039,0.028-0.08,0.044-0.119c0.115-0.288,0.245-0.57,0.385-0.849c0.014-0.028,0.026-0.056,0.04-0.084h3.777  c-0.481,1.24-0.823,2.585-0.938,4h-4.002c0.001-0.016,0.001-0.031,0.002-0.047C21.075,30.729,21.112,30.508,21.147,30.286z   M41.826,27.084c0.14,0.278,0.27,0.561,0.385,0.849c0.016,0.039,0.028,0.079,0.044,0.119c0.11,0.285,0.211,0.573,0.297,0.865  c0.018,0.063,0.032,0.127,0.049,0.19c0.074,0.27,0.142,0.541,0.196,0.815c0.023,0.12,0.037,0.243,0.056,0.365  c0.035,0.222,0.073,0.443,0.094,0.667c0.001,0.016,0.001,0.031,0.002,0.047h-4.002c-0.116-1.415-0.458-2.76-0.938-4h3.777  C41.8,27.027,41.812,27.056,41.826,27.084z M36.947,31H33v-4h2.834C36.388,28.229,36.807,29.58,36.947,31z M33,25v-2.461  c0.553,0.669,1.177,1.504,1.765,2.461H33z M31,25h-1.765c0.589-0.957,1.212-1.792,1.765-2.461V25z M31,27v4h-3.947  c0.139-1.42,0.559-2.771,1.113-4H31z M27.053,33H31v4h-2.834C27.612,35.771,27.193,34.42,27.053,33z M31,39v2.461  c-0.553-0.669-1.177-1.504-1.765-2.461H31z M33,39h1.765c-0.589,0.957-1.212,1.792-1.765,2.461V39z M33,37v-4h3.947  c-0.139,1.42-0.559,2.771-1.113,4H33z M40.479,25h-3.391c-0.789-1.473-1.696-2.719-2.488-3.677  C36.938,21.893,38.991,23.201,40.479,25z M29.4,21.323c-0.791,0.958-1.699,2.204-2.488,3.677h-3.391  C25.009,23.201,27.062,21.893,29.4,21.323z M23.521,39h3.391c0.789,1.473,1.696,2.719,2.488,3.677  C27.062,42.107,25.009,40.799,23.521,39z M34.6,42.677c0.791-0.958,1.699-2.204,2.488-3.677h3.391  C38.991,40.799,36.938,42.107,34.6,42.677z" vector-effect="non-scaling-stroke" style="fill: rgb(28, 28, 28);"/><path d="M61,39.201c0-2.206-1.794-4-4-4c-0.251,0-0.494,0.03-0.732,0.074c-0.686-1.143-1.411-2.289-2.195-3.435  c2.462-3.596,4.454-7.189,5.854-10.625c3.1-7.608,2.976-13.629-0.349-16.954C54.558-0.759,43.635,1.751,32,9.741  C20.364,1.751,9.441-0.758,4.423,4.261c-3.485,3.484-3.454,9.812,0.048,17.867C3.581,22.862,3,23.959,3,25.201c0,2.206,1.794,4,4,4  c0.388,0,0.755-0.073,1.109-0.176c0.575,0.934,1.181,1.869,1.822,2.805c-2.464,3.598-4.456,7.192-5.857,10.63  c-3.1,7.608-2.976,13.629,0.349,16.954c1.757,1.757,4.238,2.592,7.22,2.592c5.534,0,12.796-2.891,20.357-8.082  c7.561,5.191,14.823,8.082,20.358,8.082c2.981,0,5.463-0.835,7.22-2.592c3.396-3.396,3.448-9.536,0.182-17.331  C60.52,41.355,61,40.335,61,39.201z M59,39.201c0,0.72-0.386,1.347-0.959,1.699c-0.005,0.003-0.011,0.003-0.016,0.006  c-0.151,0.091-0.308,0.157-0.467,0.206c-0.02,0.006-0.04,0.013-0.06,0.019c-0.163,0.044-0.329,0.07-0.498,0.07c-1.103,0-2-0.897-2-2  c0-0.179,0.031-0.351,0.077-0.518c0.011-0.042,0.024-0.082,0.038-0.123c0.051-0.15,0.116-0.294,0.2-0.427  c0.007-0.012,0.012-0.025,0.02-0.036c0.094-0.142,0.211-0.267,0.339-0.382c0.029-0.026,0.059-0.05,0.089-0.074  c0.136-0.108,0.282-0.205,0.446-0.276c0,0,0.001-0.001,0.001-0.001c0.243-0.105,0.51-0.164,0.79-0.164  C58.103,37.201,59,38.098,59,39.201z M43.377,5.764c3.396-1.383,6.452-2.076,8.991-2.076c2.482,0,4.469,0.662,5.794,1.987  c2.68,2.68,2.647,8.069-0.089,14.786c-1.27,3.117-3.044,6.372-5.234,9.643c-2.559-3.521-5.537-7.004-8.82-10.287  c-3.373-3.373-6.838-6.335-10.264-8.835C37.021,8.799,40.268,7.031,43.377,5.764z M51.63,31.848  c-2.563,3.593-5.606,7.179-9.024,10.596c-3.414,3.413-6.995,6.452-10.583,9.014c-3.569-2.532-7.178-5.562-10.63-9.014  c-3.381-3.381-6.44-6.985-9.027-10.613c2.564-3.594,5.608-7.181,9.027-10.6C24.815,17.81,28.404,14.765,32,12.2  c3.596,2.565,7.185,5.61,10.606,9.031C45.994,24.618,49.045,28.219,51.63,31.848z M5,25.201c0-0.795,0.469-1.476,1.142-1.799  c0.002-0.001,0.005-0.001,0.008-0.002c0.33-0.157,0.667-0.209,0.989-0.185c0.023,0.002,0.046,0.004,0.069,0.007  c0.643,0.072,1.217,0.46,1.533,1.014c0.003,0.006,0.007,0.012,0.01,0.019c0.069,0.123,0.12,0.256,0.161,0.393  c0.008,0.027,0.018,0.053,0.025,0.08C8.976,24.879,9,25.037,9,25.201c0,0.162-0.025,0.319-0.062,0.471  c-0.01,0.04-0.024,0.079-0.037,0.118c-0.038,0.119-0.084,0.235-0.144,0.345c-0.014,0.027-0.028,0.054-0.044,0.081  c-0.17,0.281-0.408,0.524-0.709,0.701c-0.004,0.002-0.006,0.006-0.01,0.009C7.701,27.096,7.364,27.201,7,27.201  C5.897,27.201,5,26.304,5,25.201z M9.831,28.023C10.553,27.299,11,26.301,11,25.201c0-2.206-1.794-4-4-4  c-0.245,0-0.488,0.023-0.729,0.069C3.188,14.146,3.021,8.49,5.837,5.675c2.68-2.68,8.069-2.647,14.786,0.089  c3.11,1.267,6.357,3.035,9.62,5.218c-3.426,2.501-6.891,5.462-10.263,8.835c-3.309,3.309-6.278,6.779-8.818,10.269  C10.701,29.397,10.254,28.709,9.831,28.023z M20.623,57.912C13.906,60.646,8.517,60.68,5.837,58  c-2.68-2.68-2.647-8.069,0.089-14.786c1.27-3.118,3.045-6.374,5.235-9.646c2.561,3.523,5.539,7.011,8.818,10.289  c3.376,3.376,6.843,6.328,10.272,8.83C26.985,54.874,23.735,56.644,20.623,57.912z M58.01,43.066  c2.804,6.805,2.87,12.217,0.153,14.934c-4.12,4.121-13.935,1.628-24.386-5.334c3.42-2.497,6.877-5.442,10.243-8.809  c3.308-3.308,6.276-6.776,8.814-10.264c0.563,0.842,1.11,1.684,1.618,2.524c-0.045,0.037-0.078,0.085-0.121,0.124  c-0.12,0.109-0.231,0.224-0.337,0.347c-0.076,0.087-0.151,0.172-0.219,0.266c-0.099,0.135-0.182,0.28-0.263,0.427  c-0.052,0.093-0.108,0.182-0.152,0.28c-0.078,0.173-0.135,0.356-0.188,0.542c-0.024,0.083-0.058,0.162-0.077,0.247  C53.036,38.625,53,38.909,53,39.201c0,2.206,1.794,4,4,4c0.23,0,0.459-0.028,0.686-0.069c0.076-0.013,0.152-0.028,0.227-0.045  C57.945,43.078,57.978,43.075,58.01,43.066z" vector-effect="non-scaling-stroke" style="fill: rgb(28, 28, 28);"/></svg>