<?xml version="1.0" standalone="no"?>
<svg version="1.1" preserveAspectRatio="xMidYMid meet" viewBox="0 0 100 100" class="ng-element" data-id="f262f77f7df2469f877113fe01ea9e59" style="mix-blend-mode: normal; overflow: visible; width: 43px; height: 43px; filter: none;" xmlns="http://www.w3.org/2000/svg"><g display="none"><rect x="-660.877" y="-37.172" display="inline" fill="#000000" width="1370.931" height="877.172" vector-effect="non-scaling-stroke" style="fill: rgb(28, 28, 28);"/></g><g><g><path d="M50,31.783c5.412,0,9.799-4.387,9.799-9.799c0-5.412-4.387-9.799-9.799-9.799c-5.412,0-9.799,4.387-9.799,9.799    C40.201,27.395,44.588,31.783,50,31.783z M50,15.184c3.749,0,6.799,3.05,6.799,6.799s-3.05,6.799-6.799,6.799    s-6.799-3.05-6.799-6.799S46.251,15.184,50,15.184z" vector-effect="non-scaling-stroke" style="fill: rgb(28, 28, 28);"/><path d="M40.735,66.046h0.517v17.028c0,2.608,2.134,4.741,4.741,4.741h8.014c2.608,0,4.741-2.134,4.741-4.741V66.046h0.517    c2.608,0,4.741-2.134,4.741-4.741V44.478c0-5.614-4.594-10.208-10.208-10.208h-7.598c-5.614,0-10.208,4.594-10.208,10.208v16.826    C35.993,63.912,38.127,66.046,40.735,66.046z M38.993,44.478c0-3.974,3.233-7.208,7.208-7.208h7.598    c3.974,0,7.208,3.233,7.208,7.208v16.826c0,0.944-0.797,1.741-1.741,1.741h-0.517h-3v3v17.028c0,0.944-0.797,1.741-1.741,1.741    h-8.014c-0.944,0-1.741-0.797-1.741-1.741V66.046v-3h-3h-0.517c-0.944,0-1.741-0.797-1.741-1.741V44.478z" vector-effect="non-scaling-stroke" style="fill: rgb(28, 28, 28);"/><polygon points="86.137,60.643 95.253,51.527 86.137,42.41 84.016,44.532 89.511,50.027 73.952,50.027 73.952,53.027     89.511,53.027 84.016,58.522   " vector-effect="non-scaling-stroke" style="fill: rgb(28, 28, 28);"/><polygon points="76.122,83.273 76.122,86.273 89.015,86.273 89.015,73.381 86.015,73.381 86.015,81.152 75.013,70.151     72.892,72.272 83.893,83.273   " vector-effect="non-scaling-stroke" style="fill: rgb(28, 28, 28);"/><polygon points="75.013,31.851 86.015,20.849 86.015,28.62 89.015,28.62 89.015,15.728 76.122,15.728 76.122,18.728     83.893,18.728 72.892,29.73   " vector-effect="non-scaling-stroke" style="fill: rgb(28, 28, 28);"/><polygon points="15.984,58.522 10.489,53.027 26.048,53.027 26.048,50.027 10.489,50.027 15.984,44.532 13.863,42.41     4.747,51.527 13.863,60.643   " vector-effect="non-scaling-stroke" style="fill: rgb(28, 28, 28);"/><polygon points="10.985,73.381 10.985,86.273 23.878,86.273 23.878,83.273 16.107,83.273 27.108,72.272 24.987,70.151     13.985,81.152 13.985,73.381   " vector-effect="non-scaling-stroke" style="fill: rgb(28, 28, 28);"/><polygon points="13.985,20.849 24.987,31.851 27.108,29.73 16.107,18.728 23.878,18.728 23.878,15.728 10.985,15.728     10.985,28.62 13.985,28.62   " vector-effect="non-scaling-stroke" style="fill: rgb(28, 28, 28);"/></g></g></svg>