<?xml version="1.0" standalone="no"?>
<svg version="1.1" preserveAspectRatio="xMidYMid meet" viewBox="0 0 100 100" class="ng-element" data-id="4178286d6c97417d93fd9d64f95852a1" style="mix-blend-mode: normal; overflow: visible; width: 43px; height: 43px; filter: none;" xmlns="http://www.w3.org/2000/svg"><g display="none"><rect x="-420.877" y="-37.172" display="inline" fill="#000000" width="1370.931" height="877.172" vector-effect="non-scaling-stroke" style="fill: rgb(28, 28, 28);"/></g><g><g><path d="M71.273,29.534c5.412,0,9.799-4.387,9.799-9.799c0-5.412-4.387-9.799-9.799-9.799s-9.799,4.387-9.799,9.799    C61.474,25.147,65.861,29.534,71.273,29.534z M71.273,12.936c3.749,0,6.799,3.05,6.799,6.799c0,3.749-3.05,6.799-6.799,6.799    s-6.799-3.05-6.799-6.799C64.474,15.986,67.524,12.936,71.273,12.936z" vector-effect="non-scaling-stroke" style="fill: rgb(28, 28, 28);"/><path d="M28.727,29.534c5.412,0,9.799-4.387,9.799-9.799c0-5.412-4.387-9.799-9.799-9.799c-5.412,0-9.799,4.387-9.799,9.799    C18.928,25.147,23.316,29.534,28.727,29.534z M28.727,12.936c3.749,0,6.799,3.05,6.799,6.799c0,3.749-3.05,6.799-6.799,6.799    c-3.749,0-6.799-3.05-6.799-6.799C21.928,15.986,24.978,12.936,28.727,12.936z" vector-effect="non-scaling-stroke" style="fill: rgb(28, 28, 28);"/><path d="M18.477,68.217v15.606c0,3.441,2.799,6.24,6.24,6.24h8.02c3.44,0,6.24-2.799,6.24-6.24V51.553l3.532,3.11    c1.896,1.658,4.327,2.571,6.848,2.571c0.216,0,0.429-0.018,0.643-0.031c0.214,0.013,0.427,0.031,0.643,0.031    c2.521,0,4.953-0.913,6.852-2.574l3.529-3.107v32.271c0,3.441,2.799,6.24,6.24,6.24h8.02c3.441,0,6.24-2.799,6.24-6.24V68.217    c2.977-0.472,5.26-3.056,5.26-6.164v-16.82c0-6.457-5.253-11.71-11.71-11.71h-6.942c-4.049,0-7.856,1.577-10.72,4.44L50,45.376    l-7.412-7.412c-2.863-2.863-6.67-4.44-10.72-4.44h-6.942c-6.457,0-11.71,5.253-11.71,11.71v16.82    C13.217,65.161,15.5,67.745,18.477,68.217z M59.533,40.085c2.297-2.297,5.351-3.562,8.599-3.562h6.942    c4.803,0,8.71,3.907,8.71,8.71v16.82c0,1.787-1.453,3.24-3.24,3.24h-2.02v18.53c0,1.787-1.454,3.24-3.24,3.24h-8.02    c-1.787,0-3.24-1.454-3.24-3.24V44.914l-7.703,6.782l-4.199-4.199L59.533,40.085z M16.217,45.234c0-4.803,3.907-8.71,8.71-8.71    h6.942c3.248,0,6.302,1.265,8.599,3.562l12.941,12.941c-1.192,0.786-2.589,1.208-4.051,1.208c-1.794,0-3.524-0.649-4.869-1.826    l-8.511-7.494v38.909c0,1.787-1.453,3.24-3.24,3.24h-8.02c-1.787,0-3.24-1.454-3.24-3.24v-18.53h-2.02    c-1.787,0-3.24-1.454-3.24-3.24V45.234z" vector-effect="non-scaling-stroke" style="fill: rgb(28, 28, 28);"/></g></g></svg>