<?xml version="1.0" standalone="no"?>
<svg version="1.1" preserveAspectRatio="xMidYMid meet" viewBox="0 0 100 100" class="ng-element" data-id="d7ab49a584c24e028a0af7c1aed69111" style="mix-blend-mode: normal; overflow: visible; width: 43px; height: 43px; filter: none;" xmlns="http://www.w3.org/2000/svg"><title>02</title><g data-name="Group"><path data-name="Compound Path" d="M43.8,4V15.4H29.3V28.5H24.8V47.3H11.6V96H88.4V54.2H64.9V28.5H60.3V15.4H45.8V4ZM13.6,94V49.3H24.8V94ZM26.8,30.5h7.1V94H26.8ZM35.9,94V30.5h7.9V94H35.9ZM53.7,30.5V94H45.8V30.5ZM64.9,94V85.9H86.4V94ZM86.4,76v7.9H64.9V76ZM64.9,74V66.1H86.4V74ZM86.4,56.2v7.9H64.9V56.2ZM62.9,94H55.7V30.5h7.2ZM58.3,17.4V28.5h-27V17.4h27Z" vector-effect="non-scaling-stroke" style="fill: rgb(28, 28, 28);"/></g></svg>